<svg width="163" height="212" viewBox="0 0 163 212" fill="none" xmlns="http://www.w3.org/2000/svg">
<path d="M58.4492 82.6485V150.709H2.49307H1.99307V151.209V210.5V211H2.49307H162H162.5V210.5V151.209V150.709H162H116.152V1.5V1H115.652H57.47H56.97V1.5C56.97 7.75778 55.7507 13.4141 53.3212 18.4781L53.3211 18.478L53.3187 18.4833C51.0515 23.3517 47.9003 27.2346 43.8672 30.1451C39.9446 32.8964 35.9423 35.2534 31.8603 37.2168L31.8603 37.2167L31.8531 37.2204C27.9534 39.1742 23.6425 40.6426 18.9177 41.6229C14.3241 42.4118 10.811 42.9024 8.36991 43.098L8.36707 43.0983C6.06411 43.2961 3.92511 43.4939 1.95015 43.6918L1.49107 43.7378L1.5001 44.1991L1.99312 69.3953L1.99316 69.3977L2.48619 102.895L2.49344 103.387H2.98613C8.94122 103.387 15.4659 102.691 22.5583 101.303L22.5583 101.303L22.569 101.301C29.84 99.7108 37.0256 97.2275 44.1253 93.8523L44.1313 93.8494C50.6803 90.6277 55.47 86.9006 58.4492 82.6485Z" stroke="white"/>
</svg>
