<svg width="163" height="212" viewBox="0 0 163 212" fill="none" xmlns="http://www.w3.org/2000/svg">
<path d="M91.5057 142.413L91.5135 142.411L91.5213 142.409C95.8819 141.42 99.2249 140.627 101.548 140.031C103.867 139.437 107.208 138.545 111.568 137.357L111.576 137.355L111.583 137.353C116.088 135.965 119.654 134.671 122.27 133.47L122.28 133.466L122.289 133.461C125.012 132.077 128.349 130.395 132.299 128.416L132.307 128.411L132.316 128.407C136.293 126.215 139.468 123.913 141.828 121.495C144.299 119.1 146.901 116.115 149.633 112.543C152.52 108.946 154.725 105.144 156.243 101.137C157.892 97.1445 159.261 92.4639 160.355 87.0999C161.452 81.7195 162 75.9461 162 69.7812C162 65.8035 161.726 61.9237 161.179 58.1418C160.766 54.147 159.805 49.7646 158.301 44.9963C156.928 40.2118 155.074 35.8209 152.736 31.8256C150.392 27.819 147.159 23.9243 143.047 20.1394C139.06 16.1464 134.456 12.8529 129.239 10.2587C124.01 7.46116 117.495 5.27245 109.704 3.68337C102.034 1.89308 93.5509 1 84.2586 1C67.4338 1 52.9888 4.45328 40.9441 11.383C28.8973 18.314 19.2813 28.7059 12.0909 42.535L12.0892 42.5382C8.93888 48.707 6.40647 55.3704 4.49082 62.527L4.49075 62.5269L4.48858 62.5356C2.71778 69.66 1.6871 74.7403 1.41078 77.7512L1.40973 77.7626L1.40921 77.774C1.27275 80.7478 1.20434 83.3287 1.20434 85.5156V86.0156H1.70434H22.7487H22.7516L51.5587 86.3125L52.0303 86.3173L52.0627 85.8468C52.1989 83.8682 52.2682 82.4671 52.2682 81.6563C52.2682 80.7124 52.4655 78.9707 52.8736 76.4001C53.4147 73.6505 54.0164 71.6279 54.6669 70.3031C55.4711 68.7459 56.6157 66.8861 58.106 64.721C59.7034 62.4002 61.5546 60.6771 63.6549 59.5328L63.6638 59.528L63.6724 59.5228C65.9298 58.1724 68.8048 57.0999 72.3115 56.3161L72.3243 56.3132L72.337 56.3097C75.8267 55.3347 79.7989 54.8438 84.2586 54.8438C89.9544 54.8438 94.7469 55.3366 98.6454 56.3131C102.556 57.2926 105.392 58.65 107.212 60.3498L107.223 60.3598L107.234 60.3691C109.105 61.9226 110.338 63.4459 110.977 64.932L110.984 64.9481L110.992 64.9637C111.773 66.4762 112.162 68.0798 112.162 69.7812C112.162 73.4603 111.297 76.6295 109.584 79.3089L109.584 79.31C108.019 81.7733 105.113 84.0973 100.791 86.2558L100.786 86.2587C96.6176 88.4074 90.8756 90.2762 83.5404 91.8549L83.4372 91.8772L83.3517 91.9392C83.2029 92.0473 82.9188 92.1406 82.4195 92.1406H82.356L82.2945 92.1565C76.169 93.7386 71.3328 95.025 67.7872 96.0155C64.3455 96.8167 59.3505 98.5087 52.8157 101.08C46.3939 103.462 41.179 106.051 37.1841 108.851C33.2017 111.446 28.6847 115.127 23.6347 119.886C18.553 124.675 14.5656 130.067 11.677 136.061C8.7952 141.843 6.33255 149.005 4.28363 157.538C2.26314 165.758 1.23841 174.835 1.20518 184.766H1V185.266V210.5V211H1.5H22.7516H158.231H158.731V210.5V151.719V151.219H158.231H57.2127C58.2299 150.455 59.4697 149.786 60.9399 149.216L60.9531 149.211L60.966 149.205C63.1151 148.23 65.1892 147.55 67.189 147.163C69.2331 146.767 72.7756 146.074 77.816 145.084C82.8561 144.095 87.4193 143.204 91.5057 142.413Z" stroke="white"/>
</svg>
