<svg width="162" height="212" viewBox="0 0 162 212" fill="none" xmlns="http://www.w3.org/2000/svg">
<path d="M161.5 129.635V129.135H161H142.654V26.7703V1.5V1H142.154H100.615H100.385L100.235 1.17533C91.7724 11.0866 79.2075 25.9524 62.5409 45.7722C45.8747 65.3932 31.388 82.4377 19.0807 96.9058L19.079 96.9077C12.9892 104.142 8.40571 109.593 5.32853 113.26C3.78999 115.093 2.62774 116.481 1.842 117.423C1.4492 117.894 1.15002 118.254 0.944793 118.503C0.842294 118.627 0.762462 118.725 0.705847 118.795C0.6611 118.85 0.606563 118.917 0.580177 118.958L0.5 119.082V119.23V188.5V189H1H97.2308V210.5V211H97.7308H142.154H142.654V210.5V189H161H161.5V188.5V129.635ZM97.2308 75.483V129.432H54.7228L97.2308 75.483Z" stroke="white"/>
</svg>
