<svg width="20" height="20" viewBox="0 0 20 20" fill="none" xmlns="http://www.w3.org/2000/svg">
<path d="M12.5559 11.2181C12.0502 11.6923 11.3798 11.9512 10.6867 11.9401C9.99348 11.9289 9.33181 11.6486 8.8416 11.1584C8.35138 10.6682 8.07106 10.0065 8.05992 9.3133C8.04877 8.62012 8.30769 7.94978 8.7819 7.44407L11.1409 5.08407C11.6172 4.60833 12.2557 4.33009 12.9284 4.30505C13.6012 4.28002 14.2585 4.51004 14.7689 4.94907M14.4439 1.78207C14.6902 1.52736 14.9847 1.32424 15.3102 1.18453C15.6358 1.04483 15.9859 0.971342 16.3402 0.968356C16.6945 0.965371 17.0458 1.03295 17.3737 1.16715C17.7016 1.30134 17.9995 1.49948 18.25 1.74999C18.5005 2.00051 18.6986 2.29839 18.8328 2.62628C18.967 2.95416 19.0346 3.30548 19.0316 3.65975C19.0286 4.01402 18.9551 4.36415 18.8154 4.68973C18.6757 5.0153 18.4726 5.30981 18.2179 5.55607L15.8589 7.91607C15.3826 8.3918 14.7441 8.67004 14.0714 8.69508C13.3986 8.72011 12.7413 8.49009 12.2309 8.05107" stroke="white" stroke-width="1.5" stroke-linecap="round" stroke-linejoin="round"/>
<path d="M19 11C19 14.771 19 16.657 17.828 17.828C16.656 18.999 14.771 19 11 19H9C5.229 19 3.343 19 2.172 17.828C1.001 16.656 1 14.771 1 11V9C1 5.229 1 3.343 2.172 2.172C3.344 1.001 5.229 1 9 1" stroke="white" stroke-width="1.5" stroke-linecap="round" stroke-linejoin="round"/>
</svg>
