<svg width="35" height="35" viewBox="0 0 35 35" fill="none" xmlns="http://www.w3.org/2000/svg">
<path d="M29.1667 10.2083H24.7917C24.0181 10.2083 23.2763 9.90104 22.7293 9.35406C22.1823 8.80708 21.875 8.06521 21.875 7.29166V2.91666" stroke="white" stroke-width="2" stroke-linecap="round" stroke-linejoin="round"/>
<path d="M13.1249 26.25C12.3514 26.25 11.6095 25.9427 11.0625 25.3957C10.5155 24.8487 10.2083 24.1069 10.2083 23.3333V5.83333C10.2083 5.05978 10.5155 4.31792 11.0625 3.77094C11.6095 3.22395 12.3514 2.91666 13.1249 2.91666H23.3333L29.1666 8.75V23.3333C29.1666 24.1069 28.8593 24.8487 28.3123 25.3957C27.7653 25.9427 27.0235 26.25 26.2499 26.25H13.1249Z" stroke="white" stroke-width="2" stroke-linecap="round" stroke-linejoin="round"/>
<path d="M4.375 11.0833V29.75C4.375 30.3688 4.62083 30.9623 5.05842 31.3999C5.496 31.8375 6.08949 32.0833 6.70833 32.0833H21" stroke="white" stroke-width="2" stroke-linecap="round" stroke-linejoin="round"/>
</svg>
