<svg width="25" height="24" viewBox="0 0 25 24" fill="none" xmlns="http://www.w3.org/2000/svg">
<g clip-path="url(#clip0_42_622)">
<path d="M0.500554 17.7468C0.504519 17.9044 0.552764 18.0577 0.63977 18.1892C0.726777 18.3207 0.849032 18.4251 0.992554 18.4903L8.43255 21.8676C8.56057 21.9258 8.70115 21.9509 8.84139 21.9406C8.98163 21.9304 9.11705 21.885 9.23523 21.8089C9.35342 21.7327 9.45058 21.628 9.51782 21.5045C9.58506 21.381 9.62022 21.2426 9.62007 21.102L9.60808 2.89632C9.60795 2.74089 9.5647 2.58854 9.48313 2.45623C9.40157 2.32392 9.2849 2.21683 9.1461 2.14688C9.0073 2.07693 8.85181 2.04687 8.69694 2.06003C8.54206 2.07319 8.39388 2.12907 8.26887 2.22144L1.57383 7.16856C1.47663 7.2404 1.39608 7.33238 1.33768 7.43821C1.27928 7.54404 1.2444 7.66122 1.23543 7.78176L0.502474 17.663C0.500434 17.691 0.499793 17.7188 0.500554 17.7468ZM2.22135 17.203L2.88231 8.29056L7.92879 4.56096L7.93911 19.7988L2.22135 17.203ZM11.9001 24H13.1001V21.6H11.9001V24ZM11.9001 20.4H13.1001V18H11.9001V20.4ZM11.9001 16.8H13.1001V14.4H11.9001V16.8ZM11.9001 13.2H13.1001V10.8H11.9001V13.2ZM11.9001 9.6H13.1001V7.2H11.9001V9.6ZM11.9001 6H13.1001V3.6H11.9001V6ZM11.9001 2.4H13.1001V0H11.9001V2.4ZM15.3801 21.1022C15.3799 21.2428 15.4151 21.3812 15.4823 21.5047C15.5496 21.6281 15.6467 21.7328 15.7649 21.8089C15.883 21.8851 16.0184 21.9304 16.1586 21.9407C16.2988 21.951 16.4393 21.926 16.5674 21.8678L24.0074 18.4903C24.1509 18.4251 24.2732 18.3208 24.3603 18.1893C24.4473 18.0578 24.4956 17.9044 24.4996 17.7468C24.5004 17.7188 24.4997 17.6908 24.4977 17.6628L23.7647 7.78176C23.7557 7.66122 23.7209 7.54404 23.6625 7.43821C23.6041 7.33238 23.5235 7.2404 23.4263 7.16856L16.7313 2.22144C16.6063 2.12907 16.4581 2.07319 16.3032 2.06003C16.1483 2.04687 15.9929 2.07693 15.8541 2.14688C15.7152 2.21683 15.5986 2.32392 15.517 2.45623C15.4355 2.58854 15.3922 2.74089 15.3921 2.89632L15.3801 21.1022Z" fill="white"/>
</g>
<defs>
<clipPath id="clip0_42_622">
<rect width="24" height="24" fill="white" transform="translate(0.5)"/>
</clipPath>
</defs>
</svg>
