<svg width="25" height="24" viewBox="0 0 25 24" fill="none" xmlns="http://www.w3.org/2000/svg">
<g clip-path="url(#clip0_42_768)">
<path d="M21.3256 15.8654C21.0867 15.4729 20.7881 15.2212 20.4297 15.1102C19.6863 14.8723 18.8567 14.8884 18.3561 15.4302C17.7965 16.1714 17.7825 17.2823 18.3561 17.9262C19.2309 18.752 20.7762 18.3439 21.3256 17.5294V15.8654ZM23.2968 9.23512C24.0989 9.96898 24.5 11.01 24.5 12.3583V20.1406C24.4869 20.3556 24.3105 20.5217 24.116 20.5245H21.7097C21.4946 20.5115 21.3284 20.335 21.3257 20.1406V19.9101C20.5224 20.5197 19.5928 20.8006 18.6633 20.8062C17.6085 20.7753 16.6916 20.4021 15.9754 19.7438C15.0934 18.8612 14.7536 17.776 14.7466 16.659C14.7813 15.437 15.1343 14.3371 15.9882 13.5487C16.7759 12.8823 17.7075 12.5692 18.6634 12.5631C19.7215 12.5631 20.6089 12.8447 21.3257 13.4079V12.6655C21.3257 11.4879 20.7113 10.8991 19.4825 10.8991C18.5268 10.8991 17.6564 11.3002 16.8714 12.1023C16.6629 12.2868 16.3691 12.2144 16.257 11.9999L15.3098 10.3615C15.2245 10.1909 15.2501 10.0373 15.3866 9.90074C15.9669 9.32046 16.641 8.88102 17.409 8.58236C19.3121 7.92204 21.8523 7.95844 23.2968 9.23512ZM7.55307 7.95514L5.86349 13.9966H9.26823L7.55307 7.95514ZM14.5929 19.859C14.627 19.9614 14.6442 20.0296 14.6442 20.0638C14.637 20.2914 14.4623 20.4451 14.2602 20.4477H11.2394C11.0517 20.4477 10.9322 20.3539 10.881 20.1661L10.0363 17.1966H5.09551L4.25073 20.1661C4.19953 20.3539 4.07153 20.4477 3.86673 20.4477H0.897165C0.577985 20.4212 0.457285 20.2252 0.513185 19.9614L5.53071 3.4752C5.59899 3.28746 5.72697 3.1936 5.91471 3.1936H9.21709C9.40481 3.1936 9.53277 3.28746 9.60105 3.4752L14.5929 19.859Z" fill="white"/>
</g>
<defs>
<clipPath id="clip0_42_768">
<rect width="24" height="24" fill="white" transform="translate(0.5)"/>
</clipPath>
</defs>
</svg>
