<svg width="36" height="35" viewBox="0 0 36 35" fill="none" xmlns="http://www.w3.org/2000/svg">
<path d="M33.3124 17.5C33.3124 9.04313 26.4568 2.1875 17.9999 2.1875C15.3779 2.1875 12.906 2.84812 10.7447 4.01187C8.716 5.10652 6.95919 6.64305 5.6041 8.50792V3.64583H2.68744V13.8542H12.8958V10.9375H7.48098C8.62674 9.10704 10.2283 7.60552 12.1287 6.58C13.9328 5.60808 15.9507 5.10086 17.9999 5.10417C20.3958 5.10455 22.7402 5.79924 24.7495 7.10417C26.7588 8.40911 28.3469 10.2684 29.3216 12.457C30.2963 14.6456 30.6159 17.0698 30.2416 19.4363C29.8674 21.8027 28.8154 24.01 27.2129 25.7911C25.6104 27.5721 23.5261 28.8506 21.2122 29.4719C18.8983 30.0931 16.4539 30.0305 14.1748 29.2915C11.8958 28.5526 9.87967 27.169 8.3705 25.3082C6.86132 23.4475 5.92374 21.1892 5.67119 18.8067L5.51952 17.3556L2.6189 17.6604L2.77056 19.11C3.57702 26.81 10.0856 32.8125 17.9999 32.8125C26.4568 32.8125 33.3124 25.9569 33.3124 17.5ZM16.5416 8.75V18.1038L21.6458 23.2079L23.7079 21.1458L19.4583 16.8963V8.75H16.5416Z" fill="white"/>
</svg>
