<svg width="25" height="24" viewBox="0 0 25 24" fill="none" xmlns="http://www.w3.org/2000/svg">
<g clip-path="url(#clip0_100_1337)">
<path d="M14.2157 19.1147L8.59069 4.11468C8.51699 3.9181 8.38505 3.74869 8.2125 3.6291C8.03995 3.50951 7.83501 3.44543 7.62506 3.44543C7.41512 3.44543 7.21018 3.50951 7.03763 3.6291C6.86508 3.74869 6.73313 3.9181 6.65944 4.11468L1.03444 19.1147C0.941404 19.3701 0.952993 19.652 1.06668 19.8989C1.18037 20.1458 1.38697 20.3379 1.64153 20.4333C1.89609 20.5287 2.17802 20.5197 2.426 20.4083C2.67397 20.2969 2.86793 20.0921 2.96569 19.8384L4.66069 15.3187C4.66736 15.3009 4.67933 15.2855 4.695 15.2746C4.71066 15.2637 4.72927 15.2578 4.74834 15.2578H10.5018C10.5209 15.2578 10.5395 15.2637 10.5551 15.2746C10.5708 15.2855 10.5828 15.3009 10.5894 15.3187L12.2844 19.8384C12.3822 20.0921 12.5762 20.2969 12.8241 20.4083C13.0721 20.5197 13.354 20.5287 13.6086 20.4333C13.8632 20.3379 14.0698 20.1458 14.1834 19.8989C14.2971 19.652 14.3087 19.3701 14.2157 19.1147ZM5.50444 13.0678L7.53741 7.64671C7.54415 7.62893 7.55615 7.61361 7.57181 7.60281C7.58747 7.592 7.60604 7.58621 7.62506 7.58621C7.64409 7.58621 7.66266 7.592 7.67832 7.60281C7.69397 7.61361 7.70597 7.62893 7.71272 7.64671L9.74569 13.0687C9.75098 13.0829 9.75277 13.0982 9.7509 13.1132C9.74903 13.1282 9.74355 13.1425 9.73494 13.1549C9.72633 13.1674 9.71484 13.1775 9.70144 13.1846C9.68805 13.1916 9.67316 13.1953 9.65803 13.1953H5.59209C5.57697 13.1953 5.56208 13.1916 5.54868 13.1846C5.53529 13.1775 5.5238 13.1674 5.51519 13.1549C5.50658 13.1425 5.5011 13.1282 5.49923 13.1132C5.49736 13.0982 5.49914 13.0829 5.50444 13.0687V13.0678ZM19.2862 7.94531C17.3305 7.93125 15.5793 9.06421 14.833 10.8234C14.7261 11.0752 14.7236 11.3591 14.826 11.6127C14.9284 11.8663 15.1274 12.0689 15.3791 12.1758C15.6309 12.2827 15.9148 12.2852 16.1684 12.1828C16.422 12.0804 16.6246 11.8814 16.7315 11.6297C17.1477 10.6505 18.1269 10.0153 19.2308 10.0078C20.7458 9.9975 21.9688 11.25 21.9688 12.7664C21.9688 12.7847 21.9617 12.8022 21.9491 12.8153C21.9364 12.8284 21.9191 12.8361 21.9008 12.8367C20.8733 12.8653 19.6546 12.9337 18.5671 13.0617C16.0007 13.3636 14.4688 14.7628 14.4688 16.8047C14.4688 17.8917 14.8794 18.8672 15.6252 19.5553C16.3251 20.1998 17.2813 20.5547 18.3126 20.5547C19.7657 20.5547 21.0168 20.1797 21.966 19.4662H21.9688C21.9682 19.6017 21.9943 19.7359 22.0456 19.8612C22.0969 19.9866 22.1724 20.1006 22.2677 20.1968C22.3631 20.2929 22.4764 20.3694 22.6013 20.4217C22.7262 20.4741 22.8602 20.5014 22.9956 20.5019C23.131 20.5025 23.2653 20.4764 23.3906 20.4252C23.5159 20.3739 23.6299 20.2984 23.7261 20.2031C23.8223 20.1077 23.8987 19.9943 23.9511 19.8695C24.0035 19.7446 24.0307 19.6106 24.0313 19.4752V12.772C24.0313 10.1386 21.9219 7.96453 19.2862 7.94531ZM18.3126 18.4922C17.4908 18.4922 16.5313 18.0502 16.5313 16.8047C16.5313 16.3045 16.7108 15.9544 17.114 15.6689C17.5063 15.3909 18.1077 15.1927 18.808 15.1102C19.798 14.9934 20.909 14.9292 21.8615 14.9006C21.8742 14.9006 21.8868 14.9032 21.8985 14.9082C21.9102 14.9132 21.9207 14.9205 21.9295 14.9297C21.9382 14.9389 21.945 14.9498 21.9495 14.9617C21.9539 14.9737 21.9559 14.9864 21.9552 14.9991C21.8282 17.3484 20.631 18.4922 18.3126 18.4922Z" fill="white"/>
</g>
<defs>
<clipPath id="clip0_100_1337">
<rect width="24" height="24" fill="white" transform="translate(0.5)"/>
</clipPath>
</defs>
</svg>
