<svg width="264" height="131" viewBox="0 0 264 131" fill="none" xmlns="http://www.w3.org/2000/svg">
<rect x="0.35791" y="33.0928" width="253" height="97.989" rx="10" transform="rotate(-7.3657 0.35791 33.0928)" fill="#3183FF"/>
<path d="M90.0396 67.0985C90.079 67.404 90.108 67.7995 90.1264 68.2852C90.1392 68.7272 90.0556 69.6253 89.8758 70.9795C89.6959 72.3338 89.3795 73.6613 88.9265 74.9621C88.4679 76.2193 87.6799 77.6743 86.5626 79.3272C85.4833 80.9308 84.1196 82.3937 82.4715 83.7159C80.8614 84.9888 78.6643 86.1823 75.8801 87.2964C73.134 88.3613 70.0154 89.1193 66.5245 89.5706C61.6808 90.1968 57.3767 90.0211 53.6124 89.0436C49.848 88.0662 46.9823 86.662 45.0154 84.831C43.0864 82.9508 41.5093 81.0473 40.2842 79.1204C39.0591 77.1936 38.288 75.5186 37.9709 74.0955L37.4299 71.9694L52.3537 70.0402C52.365 70.1274 52.3847 70.2802 52.4129 70.4984C52.4791 70.6673 52.6172 71.0487 52.8271 71.6427C53.0749 72.1874 53.3418 72.7075 53.6277 73.2029C53.9572 73.6927 54.4261 74.2311 55.0343 74.8179C55.6806 75.3555 56.4057 75.8164 57.2095 76.2005C58.0134 76.5846 59.0242 76.8532 60.2419 77.0064C61.5032 77.1539 62.8757 77.1318 64.3593 76.94C65.843 76.7482 67.1816 76.4642 68.3753 76.0881C69.5633 75.6683 70.5056 75.2359 71.2023 74.7909C71.937 74.2967 72.5598 73.7947 73.0706 73.285C73.5815 72.7753 73.9397 72.2853 74.1451 71.8151C74.3448 71.3013 74.5094 70.8585 74.6389 70.4869C74.7626 70.0716 74.8322 69.752 74.8477 69.5282L74.7969 69.1354L73.2823 57.4189L54.8239 59.805L52.8609 44.6194L86.5704 40.2618L90.0396 67.0985ZM118.83 44.011C122.059 43.5935 124.981 43.3711 127.595 43.3438C130.203 43.2728 132.851 43.5073 135.539 44.0472C138.22 44.5435 140.503 45.3798 142.385 46.5562C144.267 47.7326 145.884 49.4313 147.236 51.6523C148.582 53.8297 149.459 56.4893 149.865 59.6312C150.327 63.2094 150.068 66.3486 149.086 69.0488C148.147 71.7433 146.509 73.996 144.17 75.8068C141.825 77.574 139.037 78.9992 135.805 80.0825C132.567 81.1221 128.701 81.9324 124.207 82.5134C119.625 83.1057 115.633 83.2889 112.232 83.0631C108.831 82.8372 105.816 82.1622 103.186 81.0381C100.551 79.8704 98.4612 78.1218 96.9178 75.7924C95.4125 73.4138 94.4285 70.4354 93.9659 66.8571C93.5711 63.8026 93.7042 61.0568 94.3652 58.62C95.0699 56.1775 96.1393 54.1537 97.5733 52.5486C99.0074 50.9435 100.868 49.5495 103.155 48.3665C105.442 47.1835 107.832 46.2757 110.323 45.643C112.853 44.9611 115.688 44.4171 118.83 44.011ZM122.95 71.7618C126.79 71.2654 129.632 70.2547 131.476 68.7298C133.357 67.1556 134.098 64.8193 133.697 61.7211C133.477 60.0193 132.898 58.63 131.961 57.5534C131.017 56.4331 129.854 55.6739 128.472 55.2758C127.133 54.8721 125.817 54.643 124.523 54.5884C123.268 54.4845 121.942 54.5228 120.545 54.7033C119.541 54.8331 118.549 55.0501 117.568 55.3544C116.581 55.615 115.59 56.0094 114.593 56.5375C113.597 57.0656 112.745 57.6859 112.039 58.3984C111.376 59.1052 110.847 59.9943 110.454 61.0656C110.098 62.0877 109.999 63.2096 110.157 64.4314C110.546 67.4424 111.772 69.5466 113.834 70.7441C115.94 71.9359 118.979 72.2751 122.95 71.7618ZM151.205 40.0922L166.456 38.1207L171.355 76.0193L156.104 77.9908L151.205 40.0922ZM149.868 29.7502L165.119 27.7787L166.075 35.1752L150.824 37.1467L149.868 29.7502ZM221.698 38.8324C223.05 41.0534 224.074 44.0044 224.772 47.6853C225.508 51.317 226.417 57.322 227.5 65.7002L227.889 68.7112L212.638 70.6827L211.022 58.1807C211.005 58.0498 210.98 57.8534 210.946 57.5916C210.839 56.7625 210.757 56.1298 210.701 55.6934C210.639 55.2134 210.507 54.5427 210.307 53.6812C210.151 52.8141 209.976 52.149 209.783 51.6859C209.628 51.1736 209.372 50.5634 209.014 49.8554C208.695 49.0982 208.332 48.5239 207.926 48.1327C207.559 47.6921 207.079 47.2439 206.488 46.788C205.94 46.3264 205.32 45.9851 204.626 45.7643C203.932 45.5435 203.115 45.405 202.176 45.3489C201.232 45.2492 200.214 45.2698 199.123 45.4108C196.33 45.7719 194.136 46.4769 192.542 47.526C190.985 48.5258 189.583 49.8606 188.334 51.5304L191.169 73.458L175.787 75.4464L170.888 37.5477L186.27 35.5593L186.947 40.7958C188.213 39.6116 189.189 38.7534 189.875 38.2211C190.598 37.6396 191.597 36.9559 192.871 36.1701C194.182 35.3351 195.629 34.6823 197.209 34.2117C198.79 33.7412 200.628 33.3706 202.722 33.0998C204.773 32.8347 206.595 32.6879 208.189 32.6593C209.782 32.6308 211.464 32.7684 213.233 33.072C215.047 33.37 216.659 34.0045 218.071 34.9755C219.527 35.9408 220.736 37.2265 221.698 38.8324Z" fill="white"/>
</svg>
