<svg width="1366" height="136" viewBox="0 0 1366 136" fill="none" xmlns="http://www.w3.org/2000/svg">
<g opacity="0.11">
<path d="M1246.13 1.93994H1245.63V2.43994V134.102V134.602H1246.13H1279.14H1279.64V134.102V103.468H1308.73L1325.58 134.155L1325.72 134.413L1326.02 134.414L1364.12 134.602L1364.95 134.606L1364.57 133.869L1344.37 95.4263C1356.49 86.395 1362.5 71.4826 1362.5 50.8286C1362.5 44.2955 1361.83 38.4396 1360.5 33.2654C1359.27 28.1123 1357.65 23.8746 1355.63 20.5678C1353.72 17.1468 1351.32 14.2273 1348.44 11.8136C1345.59 9.29637 1342.86 7.45351 1340.26 6.30184C1337.76 5.03256 1334.94 4.08414 1331.8 3.45237C1328.77 2.70158 1326.38 2.25684 1324.64 2.12884C1322.93 2.00282 1321.12 1.93994 1319.22 1.93994H1246.13ZM1327.93 52.1414C1327.93 56.1911 1326.92 59.1364 1324.99 61.0725C1323.07 63.0083 1320.14 64.0199 1316.1 64.0199H1279.64V41.3883H1315.54C1319.77 41.3883 1322.86 42.314 1324.88 44.0782C1326.88 45.8311 1327.93 48.4864 1327.93 52.1414Z" stroke="white"/>
<path d="M1197.4 2.65454L1197.29 2.31543H1196.93H1145.65H1145.3L1145.18 2.655L1100.7 133.942L1100.48 134.602H1101.18H1139.14H1139.5L1139.61 134.263L1147 112.471H1195.44L1202.83 134.263L1202.95 134.602H1203.31H1241.55H1242.25L1242.02 133.941L1197.4 2.65454ZM1159.12 73.5855L1171.15 41.0117L1183.32 73.5855H1159.12Z" stroke="white"/>
<path d="M990.087 1.93994H989.587V2.43994V45.9522V46.4522H990.087H1038.88V134.102V134.602H1039.38H1072.24H1072.74V134.102V46.4522H1121.39H1121.89V45.9522V2.43994V1.93994H1121.39H990.087Z" stroke="white"/>
<path d="M970.963 2.65454L970.847 2.31543H970.489H919.213H918.854L918.739 2.655L874.262 133.942L874.038 134.602H874.736H912.697H913.055L913.171 134.263L920.563 112.471H968.998L976.39 134.263L976.505 134.602H976.863H1015.11H1015.81L1015.58 133.941L970.963 2.65454ZM932.679 73.5855L944.712 41.0117L956.879 73.5855H932.679Z" stroke="white"/>
<path d="M866.903 1.93994H866.548L866.431 2.27497L834.323 94.1412L802.075 2.27433L801.958 1.93994H801.604H763.784H763.064L763.315 2.61437L812.325 134.276L812.446 134.602H812.794H855.996H856.344L856.465 134.276L905.192 2.61348L905.441 1.93994H904.723H866.903Z" stroke="white"/>
<path d="M750.054 2.65454L749.938 2.31543H749.58H698.304H697.945L697.83 2.655L653.353 133.942L653.129 134.602H653.827H691.788H692.147L692.262 134.263L699.654 112.471H748.089L755.481 134.263L755.596 134.602H755.954H794.199H794.897L794.673 133.941L750.054 2.65454ZM711.77 73.5855L723.803 41.0117L735.97 73.5855H711.77Z" stroke="white"/>
<path d="M574.855 50.9538H575.355V50.4538C575.355 43.8108 574.977 38.2172 574.215 33.6795C573.452 29.0077 572.068 24.7684 570.058 20.9662C568.14 17.1575 565.638 14.1556 562.545 11.9778C559.556 9.68228 555.58 7.78606 550.638 6.27587C545.687 4.76307 540.033 3.75762 533.68 3.25513C527.333 2.62817 519.715 2.31543 510.831 2.31543C505.539 2.31543 500.953 2.37798 497.075 2.50324L497.074 2.50325C493.286 2.62865 489.404 2.8794 485.429 3.25541C481.449 3.63179 478.074 4.13462 475.307 4.76616L475.307 4.76614L475.304 4.76703C472.634 5.39827 469.92 6.28106 467.161 7.41421C464.473 8.43185 462.245 9.77408 460.491 11.4497C458.761 12.9776 457.133 14.8181 455.605 16.9673C454.061 19.1405 452.858 21.6276 451.994 24.424C451.134 27.2062 450.468 30.3599 449.993 33.8824C449.517 37.41 449.281 41.3715 449.281 45.765C449.281 49.4168 449.566 52.8229 450.138 55.982L450.14 55.9913L450.142 56.0004C450.806 59.0128 451.518 61.7162 452.279 64.1091L452.281 64.1177L452.284 64.126C453.159 66.5697 454.519 68.7553 456.36 70.6801L456.36 70.6802L456.369 70.6892C458.261 72.5684 459.966 74.1991 461.484 75.5805L461.49 75.5856L461.495 75.5905C463.165 77.0211 465.589 78.2966 468.733 79.4321L468.742 79.4352L468.75 79.4379C471.865 80.4379 474.555 81.3127 476.82 82.0623L476.832 82.0662L476.844 82.0696C479.134 82.7014 482.458 83.3923 486.807 84.1434L486.815 84.1447L486.822 84.1458C491.262 84.7711 494.947 85.2716 497.877 85.647L497.879 85.6473C500.904 86.0228 505.203 86.5232 510.775 87.1484L510.777 87.1487C514.274 87.5241 518.667 87.9619 523.957 88.4622L523.961 88.4626C527.593 88.7749 530.513 89.0712 532.723 89.3513C534.946 89.6331 536.415 89.8945 537.17 90.1297C537.899 90.3569 538.402 90.6975 538.726 91.1259C539.048 91.5528 539.227 92.1122 539.227 92.8408C539.227 94.1488 538.946 95.1283 538.437 95.8291C537.933 96.5224 537.167 96.9981 536.082 97.228L536.078 97.2289C534.995 97.4678 532.843 97.6549 529.58 97.7802C526.331 97.9048 522.018 97.9673 516.638 97.9673H516.629H516.62H516.612H516.603H516.594H516.585H516.576H516.567H516.559H516.55H516.541H516.532H516.524H516.515H516.506H516.497H516.489H516.48H516.471H516.463H516.454H516.445H516.437H516.428H516.419H516.411H516.402H516.394H516.385H516.376H516.368H516.359H516.351H516.342H516.333H516.325H516.316H516.308H516.299H516.291H516.282H516.274H516.265H516.257H516.248H516.24H516.231H516.223H516.215H516.206H516.198H516.189H516.181H516.173H516.164H516.156H516.147H516.139H516.131H516.122H516.114H516.106H516.097H516.089H516.081H516.073H516.064H516.056H516.048H516.04H516.031H516.023H516.015H516.007H515.998H515.99H515.982H515.974H515.966H515.957H515.949H515.941H515.933H515.925H515.917H515.909H515.901H515.892H515.884H515.876H515.868H515.86H515.852H515.844H515.836H515.828H515.82H515.812H515.804H515.796H515.788H515.78H515.772H515.764H515.756H515.748H515.74H515.732H515.724H515.717H515.709H515.701H515.693H515.685H515.677H515.669H515.661H515.654H515.646H515.638H515.63H515.622H515.615H515.607H515.599H515.591H515.583H515.576H515.568H515.56H515.552H515.545H515.537H515.529H515.522H515.514H515.506H515.499H515.491H515.483H515.476H515.468H515.46H515.453H515.445H515.438H515.43H515.422H515.415H515.407H515.4H515.392H515.385H515.377H515.37H515.362H515.355H515.347H515.34H515.332H515.325H515.317H515.31H515.302H515.295H515.288H515.28H515.273H515.265H515.258H515.251H515.243H515.236H515.229H515.221H515.214H515.206H515.199H515.192H515.185H515.177H515.17H515.163H515.155H515.148H515.141H515.134H515.126H515.119H515.112H515.105H515.098H515.09H515.083H515.076H515.069H515.062H515.055H515.047H515.04H515.033H515.026H515.019H515.012H515.005H514.998H514.991H514.984H514.977H514.97H514.963H514.955H514.948H514.941H514.934H514.927H514.921H514.914H514.907H514.9H514.893H514.886H514.879H514.872H514.865H514.858H514.851H514.844H514.837H514.831H514.824H514.817H514.81H514.803H514.796H514.79H514.783H514.776H514.769H514.762H514.756H514.749H514.742H514.735H514.729H514.722H514.715H514.708H514.702H514.695H514.688H514.682H514.675H514.668H514.662H514.655H514.648H514.642H514.635H514.628H514.622H514.615H514.609H514.602H514.596H514.589H514.582H514.576H514.569H514.563H514.556H514.55H514.543H514.537H514.53H514.524H514.517H514.511H514.505H514.498H514.492H514.485H514.479H514.472H514.466H514.46H514.453H514.447H514.441H514.434H514.428H514.422H514.415H514.409H514.403H514.396H514.39H514.384H514.377H514.371H514.365H514.359H514.352H514.346H514.34H514.334H514.328H514.321H514.315H514.309H514.303H514.297H514.291H514.284H514.278H514.272H514.266H514.26H514.254H514.248H514.242H514.236H514.23H514.223H514.217H514.211H514.205H514.199H514.193H514.187H514.181H514.175H514.169H514.163H514.157H514.151H514.146H514.14H514.134H514.128H514.122H514.116H514.11H514.104H514.098H514.092H514.087H514.081H514.075H514.069H514.063H514.057H514.052H514.046H514.04H514.034H514.028H514.023H514.017H514.011H514.005H514H513.994H513.988H513.983H513.977H513.971H513.966H513.96H513.954H513.949H513.943H513.937H513.932H513.926H513.92H513.915H513.909H513.904H513.898H513.893H513.887H513.881H513.876H513.87H513.865H513.859H513.854H513.848H513.843H513.837H513.832H513.826H513.821H513.816H513.81H513.805H513.799H513.794H513.789H513.783H513.778H513.772H513.767H513.762H513.756H513.751H513.746H513.74H513.735H513.73H513.724H513.719H513.714H513.709H513.703H513.698H513.693H513.688H513.682H513.677H513.672H513.667H513.662H513.656H513.651H513.646H513.641H513.636H513.631H513.625H513.62H513.615H513.61H513.605H513.6H513.595H513.59H513.585H513.58H513.575H513.57H513.565H513.56H513.555H513.549H513.545H513.54H513.535H513.53H513.525H513.52H513.515H513.51H513.505H513.5H513.495H513.49H513.485H513.48H513.476H513.471H513.466H513.461H513.456H513.451H513.446H513.442H513.437H513.432H513.427H513.423H513.418H513.413H513.408H513.403H513.399H513.394H513.389H513.385H513.38H513.375H513.371H513.366H513.361H513.357H513.352H513.347H513.343H513.338H513.333H513.329H513.324H513.32H513.315H513.31H513.306H513.301H513.297H513.292H513.288H513.283H513.279H513.274H513.27H513.265H513.261H513.256H513.252H513.247H513.243H513.239C506.727 97.9673 501.689 97.8423 498.118 97.5935C494.645 97.345 491.962 96.8497 490.044 96.1242C488.114 95.394 486.983 94.5214 486.497 93.5688C486.067 92.5343 485.834 90.9923 485.834 88.9021V88.4021H485.334H451.197H450.697V88.9021C450.697 93.9121 450.839 98.2395 451.123 101.882C451.409 105.535 451.98 109.003 452.838 112.285C453.695 115.565 454.748 118.298 456.005 120.474L456.013 120.487L456.021 120.499C457.378 122.553 459.213 124.468 461.515 126.246C463.825 128.03 466.422 129.431 469.303 130.448C472.176 131.462 475.751 132.281 480.02 132.909L480.022 132.909C484.383 133.537 489.025 133.976 493.949 134.227L493.95 134.227C498.965 134.477 504.876 134.602 511.68 134.602C521.601 134.602 529.874 134.415 536.497 134.039L536.506 134.038C543.231 133.537 549.208 132.658 554.433 131.4C559.652 130.144 563.766 128.629 566.754 126.842L566.761 126.838L566.768 126.834C569.768 124.911 572.184 122.286 574.015 118.97C575.935 115.664 577.181 112.043 577.757 108.111C578.424 104.197 578.755 99.2296 578.755 93.2159C578.755 84.6921 577.904 78.1191 576.173 73.5337L576.172 73.5308C573.552 66.7215 567.738 61.9487 558.857 59.167C552.109 57.0279 536.295 54.6547 511.48 52.0378C511.3 51.8974 511.082 51.8349 510.861 51.8297C498.328 50.4571 490.812 49.5235 488.277 49.0281C487.099 48.7266 486.254 48.3172 485.7 47.8284C485.162 47.3529 484.885 46.7922 484.842 46.1252C484.845 44.3405 485.34 43.2233 486.193 42.6068C486.633 42.2893 487.43 41.9637 488.644 41.6545C489.845 41.3488 491.405 41.0706 493.33 40.8219C497.168 40.3261 503.279 40.0758 511.68 40.0758C517.997 40.0758 523.073 40.3256 526.914 40.8219L526.922 40.8229L526.93 40.8237C530.779 41.1965 533.517 41.9377 535.211 43.0002L535.222 43.007L535.234 43.0133C536.991 43.993 538.008 44.986 538.416 45.9585L538.422 45.9744L538.43 45.9899C538.947 47.0162 539.227 48.4903 539.227 50.4538V50.9538H539.727H574.855Z" stroke="white"/>
<path d="M361.139 56.5181H360.639V57.0181V87.9643V88.4643H361.139H401.062C399.925 89.9218 398.97 91.0047 398.194 91.7238L398.185 91.7327L398.175 91.7421C397.372 92.5692 395.955 93.605 393.885 94.8505C391.878 96.0586 389.205 96.9802 385.846 97.5988C382.48 98.0934 378.401 98.3424 373.604 98.3424C366.743 98.3424 361.036 97.6577 356.471 96.3017C351.908 94.8211 348.507 92.7388 346.224 90.0807C344.001 87.381 342.479 84.5074 341.65 81.4588C340.814 78.2609 340.392 74.4303 340.392 69.9593C340.392 65.1128 340.862 60.9702 341.791 57.5234C342.717 54.0927 344.336 50.9677 346.653 48.1453L346.653 48.1453L346.659 48.1372C348.946 45.2307 352.301 43.0281 356.764 41.5508C361.229 40.0726 366.838 39.3255 373.604 39.3255C391.311 39.3255 402.336 43.8809 407.016 52.7502L407.234 53.1632L407.661 52.9739L438.54 39.2826L438.969 39.0922L438.806 38.6519C436.434 32.2464 433.677 26.8904 430.529 22.5937C427.47 18.1646 423.46 14.2491 418.508 10.8445C413.626 7.42238 407.47 4.90054 400.059 3.26492C392.742 1.62937 384.016 0.814941 373.887 0.814941C366.483 0.814941 359.453 1.69466 352.799 3.45642C346.232 5.09509 340.092 7.74218 334.382 11.3968L334.382 11.3967L334.378 11.3988C328.761 15.0546 323.858 19.5302 319.669 24.8239L319.669 24.8239L319.666 24.8283C315.562 30.1354 312.327 36.6306 309.952 44.3031C307.574 51.8606 306.388 60.2266 306.388 69.3966C306.388 77.4275 307.099 84.6543 308.525 91.0736C309.952 97.4989 312.284 103.548 315.52 109.218L315.519 109.218L315.525 109.228C318.864 114.785 323.111 119.461 328.264 123.252L328.264 123.252L328.274 123.259C333.525 126.925 340.049 129.822 347.834 131.959C355.63 134.099 364.599 135.165 374.737 135.165C385.995 135.165 394.614 134.039 400.555 131.756L400.561 131.753C406.181 129.509 411.053 126.162 415.173 121.715V134.102V134.602H415.673H442.161H442.661V134.102V57.0181V56.5181H442.161H361.139Z" stroke="white"/>
<path d="M299.07 134.602H299.57V134.102V2.43994V1.93994H299.07H266.208H265.708V2.43994V78.6911L218.757 2.17843L218.611 1.93994H218.331H172.296H171.796V2.43994V134.102V134.602H172.296H205.3H205.8V134.102V56.5366L253.6 134.364L253.747 134.602H254.026H299.07Z" stroke="white"/>
<path d="M129.218 134.102V134.602H129.718H162.721H163.221V134.102V2.43994V1.93994H162.721H129.718H129.218V2.43994V134.102Z" stroke="white"/>
<path d="M121.247 2.75631L121.914 1.93994H120.86H76.0996H75.8575L75.7074 2.12986L35.3803 53.1409V2.43994V1.93994H34.8803H1.87646H1.37646V2.43994V134.102V134.602H1.87646H34.8803H35.3803V134.102V107.836L45.493 95.5171L75.7048 134.409L75.8549 134.602H76.0996H120.86H121.926L121.245 133.782L67.2572 68.8309L121.247 2.75631Z" stroke="white"/>
</g>
</svg>
