<svg width="19" height="21" viewBox="0 0 19 21" fill="none" xmlns="http://www.w3.org/2000/svg">
<path fill-rule="evenodd" clip-rule="evenodd" d="M9.085 0.665314C8.71238 0.665314 8.35502 0.813336 8.09154 1.07682C7.82806 1.3403 7.68004 1.69766 7.68004 2.07028V2.21077C6.09332 2.53466 4.66724 3.39682 3.64314 4.65133C2.61905 5.90585 2.05985 7.47566 2.06018 9.0951V14.715L0.367195 16.5808C-0.451899 17.4841 0.188765 18.9299 1.40687 18.9299H6.6516C6.89823 19.357 7.25295 19.7117 7.6801 19.9583C8.10725 20.2049 8.59178 20.3347 9.085 20.3347C9.57822 20.3347 10.0628 20.2049 10.4899 19.9583C10.9171 19.7117 11.2718 19.357 11.5184 18.9299H16.7631C17.9812 18.9299 18.6219 17.4827 17.8028 16.5808L16.1098 14.715V9.0951C16.1102 7.47566 15.551 5.90585 14.5269 4.65133C13.5028 3.39682 12.0767 2.53466 10.49 2.21077V2.07028C10.49 1.69766 10.3419 1.3403 10.0785 1.07682C9.81498 0.813336 9.45762 0.665314 9.085 0.665314ZM4.16762 15.5298L3.61969 16.1312L2.99307 16.8224H15.1769L14.5489 16.1312L14.0024 15.5284V9.0951C14.0024 8.44934 13.8752 7.80991 13.6281 7.2133C13.3809 6.6167 13.0187 6.07461 12.5621 5.61799C12.1055 5.16137 11.5634 4.79916 10.9668 4.55204C10.3702 4.30492 9.73076 4.17772 9.085 4.17772C8.43924 4.17772 7.79981 4.30492 7.2032 4.55204C6.6066 4.79916 6.06451 5.16137 5.60789 5.61799C5.15127 6.07461 4.78906 6.6167 4.54194 7.2133C4.29482 7.80991 4.16762 8.44934 4.16762 9.0951V15.5298Z" fill="white"/>
</svg>
