<svg width="25" height="24" viewBox="0 0 25 24" fill="none" xmlns="http://www.w3.org/2000/svg">
<path d="M6 9.74995V20.25C6 20.388 6.112 20.5 6.25 20.5H18.75C18.8163 20.5 18.8799 20.4736 18.9268 20.4267C18.9737 20.3798 19 20.3163 19 20.25V9.74995C19 9.68365 18.9737 9.62006 18.9268 9.57317C18.8799 9.52629 18.8163 9.49995 18.75 9.49995H16.25C16.0511 9.49995 15.8603 9.42093 15.7197 9.28028C15.579 9.13963 15.5 8.94886 15.5 8.74995C15.5 8.55104 15.579 8.36027 15.7197 8.21962C15.8603 8.07897 16.0511 7.99995 16.25 7.99995H18.75C19.716 7.99995 20.5 8.78395 20.5 9.74995V20.25C20.5 20.7141 20.3156 21.1592 19.9874 21.4874C19.6592 21.8156 19.2141 22 18.75 22H6.25C5.78587 22 5.34075 21.8156 5.01256 21.4874C4.68437 21.1592 4.5 20.7141 4.5 20.25V9.74995C4.5 8.78395 5.284 7.99995 6.25 7.99995H8.75C8.94891 7.99995 9.13968 8.07897 9.28033 8.21962C9.42098 8.36027 9.5 8.55104 9.5 8.74995C9.5 8.94886 9.42098 9.13963 9.28033 9.28028C9.13968 9.42093 8.94891 9.49995 8.75 9.49995H6.25C6.1837 9.49995 6.12011 9.52629 6.07322 9.57317C6.02634 9.62006 6 9.68365 6 9.74995ZM13.03 1.21995L16.28 4.46995C16.3787 4.56162 16.4509 4.67823 16.4889 4.80747C16.5269 4.93672 16.5294 5.07383 16.496 5.20436C16.4626 5.33488 16.3947 5.45399 16.2993 5.54913C16.2039 5.64427 16.0846 5.71192 15.954 5.74495C15.8236 5.77826 15.6867 5.77587 15.5575 5.73805C15.4284 5.70022 15.3118 5.62834 15.22 5.52995L13.25 3.55995V14.25C13.25 14.4489 13.171 14.6396 13.0303 14.7803C12.8897 14.9209 12.6989 15 12.5 15C12.3011 15 12.1103 14.9209 11.9697 14.7803C11.829 14.6396 11.75 14.4489 11.75 14.25V3.55995L9.78 5.52995C9.63785 5.66259 9.44975 5.73485 9.25536 5.7315C9.06097 5.72814 8.87548 5.64942 8.738 5.51195C8.60053 5.37447 8.52181 5.18898 8.51846 4.99459C8.5151 4.8002 8.58736 4.6121 8.72 4.46995L11.97 1.21995C12.1106 1.0795 12.3012 1.00061 12.5 1.00061C12.6988 1.00061 12.8894 1.0795 13.03 1.21995Z" fill="white"/>
</svg>
