<svg width="43" height="43" viewBox="0 0 43 43" fill="none" xmlns="http://www.w3.org/2000/svg">
<rect x="0.5" y="0.5" width="42" height="42" rx="21" stroke="white"/>
<path d="M21.5 14C21.8906 14 22.2075 14.317 22.2075 14.7075V20.7925H28.2925C28.4801 20.7925 28.6601 20.867 28.7928 20.9997C28.9255 21.1324 29 21.3123 29 21.5C29 21.6877 28.9255 21.8676 28.7928 22.0003C28.6601 22.133 28.4801 22.2075 28.2925 22.2075H22.2075V28.2925C22.2075 28.4801 22.133 28.6601 22.0003 28.7928C21.8676 28.9255 21.6877 29 21.5 29C21.3123 29 21.1324 28.9255 20.9997 28.7928C20.867 28.6601 20.7925 28.4801 20.7925 28.2925V22.2075H14.7075C14.5199 22.2075 14.3399 22.133 14.2072 22.0003C14.0745 21.8676 14 21.6877 14 21.5C14 21.3123 14.0745 21.1324 14.2072 20.9997C14.3399 20.867 14.5199 20.7925 14.7075 20.7925H20.7925V14.7075C20.7925 14.317 21.1094 14 21.5 14Z" fill="white"/>
</svg>
