<svg width="27" height="27" viewBox="0 0 27 27" fill="none" xmlns="http://www.w3.org/2000/svg">
<rect x="12.8828" y="-0.00854492" width="18.4139" height="18.4139" rx="9.20693" transform="rotate(44.3962 12.8828 -0.00854492)" fill="#DC4444"/>
<path d="M15.9067 16.643L9.32816 10.2017C9.1034 9.98163 9.09951 9.61273 9.31959 9.38796C9.53966 9.1632 9.90856 9.15931 10.1333 9.37939L16.7118 15.8207C16.9366 16.0408 16.9405 16.4097 16.7204 16.6344C16.5003 16.8592 16.1315 16.8631 15.9067 16.643Z" fill="#E3E9F0"/>
<path d="M9.39661 16.7116C9.17184 16.4915 9.16795 16.1227 9.38803 15.8979L15.8294 9.31936C16.0494 9.09459 16.4183 9.09071 16.6431 9.31079C16.8679 9.53086 16.8717 9.89976 16.6517 10.1245L10.2103 16.703C9.99027 16.9278 9.62137 16.9317 9.39661 16.7116Z" fill="#E3E9F0"/>
</svg>
