<svg width="25" height="24" viewBox="0 0 25 24" fill="none" xmlns="http://www.w3.org/2000/svg">
<path d="M9.25 3.25C6.2125 3.25 3.75 5.7125 3.75 8.75C3.75 11.446 5.69 13.689 8.25 14.1595V15.4265C4.9965 14.9435 2.5 12.138 2.5 8.75C2.5 5.022 5.522 2 9.25 2C12.638 2 15.4435 4.4965 15.9265 7.75H14.6595C14.1895 5.19 11.946 3.25 9.25 3.25ZM12.125 9C11.4288 9 10.7611 9.27656 10.2688 9.76884C9.77656 10.2611 9.5 10.9288 9.5 11.625V19.375C9.5 20.825 10.675 22 12.125 22H19.875C21.325 22 22.5 20.825 22.5 19.375V11.625C22.5 10.175 21.325 9 19.875 9H12.125ZM10.75 11.625C10.75 11.2603 10.8949 10.9106 11.1527 10.6527C11.4106 10.3949 11.7603 10.25 12.125 10.25H19.875C20.2397 10.25 20.5894 10.3949 20.8473 10.6527C21.1051 10.9106 21.25 11.2603 21.25 11.625V19.375C21.25 19.7397 21.1051 20.0894 20.8473 20.3473C20.5894 20.6051 20.2397 20.75 19.875 20.75H12.125C11.7603 20.75 11.4106 20.6051 11.1527 20.3473C10.8949 20.0894 10.75 19.7397 10.75 19.375V11.625Z" fill="white"/>
</svg>
