<svg width="21" height="20" viewBox="0 0 21 20" fill="none" xmlns="http://www.w3.org/2000/svg">
<g clip-path="url(#clip0_42_770)">
<path d="M14.378 0.281996L14.726 1.353C14.8339 1.67875 15.0165 1.97475 15.2593 2.21732C15.502 2.45989 15.7981 2.64231 16.124 2.75L17.196 3.098L17.217 3.104C17.2996 3.13307 17.3711 3.18707 17.4217 3.25854C17.4723 3.33001 17.4995 3.41542 17.4995 3.503C17.4995 3.59057 17.4723 3.67598 17.4217 3.74745C17.3711 3.81892 17.2996 3.87292 17.217 3.902L16.146 4.25C15.82 4.35755 15.5236 4.53991 15.2807 4.78249C15.0378 5.02507 14.855 5.32113 14.747 5.647L14.399 6.717C14.3699 6.7996 14.3159 6.87114 14.2444 6.92175C14.173 6.97236 14.0875 6.99954 14 6.99954C13.9124 6.99954 13.827 6.97236 13.7555 6.92175C13.6841 6.87114 13.6301 6.7996 13.601 6.717L13.252 5.647C13.1448 5.3204 12.9626 5.02347 12.72 4.78C12.4772 4.53605 12.1806 4.35247 11.854 4.244L10.783 3.896C10.7004 3.86692 10.6288 3.81292 10.5782 3.74145C10.5276 3.66998 10.5004 3.58457 10.5004 3.497C10.5004 3.40942 10.5276 3.32401 10.5782 3.25254C10.6288 3.18107 10.7004 3.12707 10.783 3.098L11.854 2.75C12.1759 2.63953 12.4679 2.45587 12.7068 2.21346C12.9457 1.97105 13.1252 1.6765 13.231 1.353L13.579 0.282996C13.6078 0.200044 13.6618 0.128136 13.7334 0.0772498C13.805 0.0263636 13.8906 -0.000976562 13.9785 -0.000976562C14.0663 -0.000976563 14.152 0.0263636 14.2235 0.0772498C14.2951 0.128136 14.3491 0.199044 14.378 0.281996ZM19.283 8.21399L18.517 7.966C18.2845 7.88829 18.0734 7.75757 17.9002 7.58419C17.7269 7.41081 17.5964 7.19951 17.519 6.967L17.269 6.203C17.2483 6.14393 17.2097 6.09275 17.1587 6.05655C17.1076 6.02034 17.0466 6.00089 16.984 6.00089C16.9214 6.00089 16.8603 6.02034 16.8093 6.05655C16.7582 6.09275 16.7197 6.14393 16.699 6.203L16.451 6.967C16.3749 7.19802 16.2465 7.40836 16.0759 7.58164C15.9052 7.75491 15.6968 7.88645 15.467 7.966L14.702 8.21399C14.6434 8.23515 14.5927 8.27387 14.5569 8.32487C14.5211 8.37587 14.5019 8.43668 14.5019 8.49899C14.5019 8.56131 14.5211 8.62212 14.5569 8.67312C14.5927 8.72412 14.6434 8.76284 14.702 8.784L15.467 9.033C15.7001 9.11074 15.9119 9.24179 16.0855 9.41573C16.2591 9.58968 16.3897 9.80171 16.467 10.035L16.715 10.799C16.7357 10.8581 16.7742 10.9092 16.8253 10.9454C16.8763 10.9817 16.9374 11.0011 17 11.0011C17.0626 11.0011 17.1236 10.9817 17.1747 10.9454C17.2257 10.9092 17.2643 10.8581 17.285 10.799L17.534 10.035C17.6115 9.80238 17.7422 9.59101 17.9156 9.41762C18.089 9.24422 18.3004 9.11357 18.533 9.036L19.298 8.788C19.3566 8.76684 19.4073 8.72812 19.4431 8.67712C19.4789 8.62612 19.4981 8.56531 19.4981 8.503C19.4981 8.44068 19.4789 8.37987 19.4431 8.32887C19.4073 8.27787 19.3566 8.23915 19.298 8.218L19.283 8.21399ZM8.87797 4.093C9.00997 3.767 9.23397 3.496 9.51197 3.306C9.484 3.50234 9.49806 3.70238 9.55323 3.89288C9.6084 4.08338 9.70341 4.25998 9.83197 4.411L9.80497 4.469L6.77497 11.953L6.76297 11.985L5.55497 14.969C5.48738 15.1519 5.49368 15.3539 5.57253 15.5323C5.65137 15.7106 5.79657 15.8512 5.97734 15.9243C6.15811 15.9974 6.36024 15.9972 6.54088 15.9238C6.72151 15.8504 6.86645 15.7095 6.94497 15.531L7.96997 13H13.03L14.055 15.531C14.1335 15.7095 14.2784 15.8504 14.4591 15.9238C14.6397 15.9972 14.8418 15.9974 15.0226 15.9243C15.2034 15.8512 15.3486 15.7106 15.4274 15.5323C15.5063 15.3539 15.5126 15.1519 15.445 14.969L14.238 11.985L14.225 11.953L12.27 7.123C12.635 7.537 13.078 7.859 13.618 7.967C13.5245 8.17412 13.4869 8.40213 13.509 8.6283C13.5311 8.85447 13.6121 9.0709 13.744 9.25599C13.904 9.476 14.124 9.63599 14.394 9.736L14.408 9.741L15.144 11.557L15.174 11.631L16.373 14.593C16.4593 14.8061 16.5027 15.034 16.5009 15.2639C16.4991 15.4938 16.452 15.721 16.3623 15.9327C16.2727 16.1444 16.1422 16.3363 15.9784 16.4976C15.8145 16.6588 15.6205 16.7862 15.4075 16.8725C15.1944 16.9588 14.9664 17.0022 14.7366 17.0004C14.5067 16.9986 14.2794 16.9515 14.0678 16.8618C13.8561 16.7722 13.6642 16.6417 13.5029 16.4779C13.3417 16.3141 13.2143 16.1201 13.128 15.907L12.357 14H8.64397L7.87297 15.907C7.69873 16.3373 7.36067 16.6808 6.93318 16.8618C6.5057 17.0429 6.02379 17.0467 5.59347 16.8725C5.16316 16.6982 4.81969 16.3602 4.63862 15.9327C4.45756 15.5052 4.45373 15.0233 4.62797 14.593L5.82797 11.631C5.83731 11.6057 5.84731 11.581 5.85797 11.557L8.87797 4.093ZM12.424 11.5H8.57697L10.5 6.749L12.424 11.5Z" fill="white"/>
</g>
<defs>
<clipPath id="clip0_42_770">
<rect width="20" height="20" fill="white" transform="translate(0.5)"/>
</clipPath>
</defs>
</svg>
