<svg width="36" height="35" viewBox="0 0 36 35" fill="none" xmlns="http://www.w3.org/2000/svg">
<path fill-rule="evenodd" clip-rule="evenodd" d="M2.54639 17.5C2.54639 13.4014 4.17454 9.47073 7.07266 6.57261C9.97079 3.67448 13.9015 2.04633 18.0001 2.04633C22.0986 2.04633 26.0293 3.67448 28.9274 6.57261C31.8256 9.47073 33.4537 13.4014 33.4537 17.5C33.4537 21.5986 31.8256 25.5293 28.9274 28.4274C26.0293 31.3255 22.0986 32.9537 18.0001 32.9537C13.9015 32.9537 9.97079 31.3255 7.07266 28.4274C4.17454 25.5293 2.54639 21.5986 2.54639 17.5ZM18.0001 4.263C15.4344 4.26309 12.924 5.00881 10.7743 6.40944C8.62467 7.81008 6.92839 9.80525 5.89185 12.1522C4.85531 14.4992 4.52318 17.0969 4.93587 19.6292C5.34856 22.1615 6.48828 24.5192 8.21639 26.4157C9.26551 24.7724 10.7119 23.4201 12.422 22.4837C14.132 21.5473 16.0504 21.0571 18.0001 21.0583C19.9497 21.0569 21.8683 21.547 23.5783 22.4834C25.2884 23.4198 26.7348 24.7723 27.7837 26.4157C29.5118 24.5192 30.6515 22.1615 31.0642 19.6292C31.4769 17.0969 31.1448 14.4992 30.1083 12.1522C29.0717 9.80525 27.3754 7.81008 25.2258 6.40944C23.0761 5.00881 20.5657 4.26309 18.0001 4.263ZM26.1247 27.951C25.299 26.5279 24.1138 25.3469 22.6879 24.5262C21.2619 23.7055 19.6453 23.2741 18.0001 23.275C16.3548 23.2741 14.7382 23.7055 13.3122 24.5262C11.8863 25.3469 10.7011 26.5279 9.87539 27.951C12.1965 29.7609 15.0567 30.7417 18.0001 30.737C21.0614 30.737 23.8801 29.6963 26.1247 27.951ZM12.5167 15.1783C12.5167 13.7241 13.0944 12.3294 14.1228 11.301C15.1511 10.2727 16.5458 9.695 18.0001 9.695C19.4543 9.695 20.849 10.2727 21.8774 11.301C22.9057 12.3294 23.4834 13.7241 23.4834 15.1783C23.4834 16.6326 22.9057 18.0273 21.8774 19.0556C20.849 20.084 19.4543 20.6617 18.0001 20.6617C16.5458 20.6617 15.1511 20.084 14.1228 19.0556C13.0944 18.0273 12.5167 16.6326 12.5167 15.1783ZM18.0001 11.9117C17.5711 11.9117 17.1463 11.9962 16.75 12.1603C16.3536 12.3245 15.9935 12.5651 15.6902 12.8685C15.3868 13.1718 15.1462 13.5319 14.982 13.9282C14.8179 14.3246 14.7334 14.7493 14.7334 15.1783C14.7334 15.6073 14.8179 16.0321 14.982 16.4284C15.1462 16.8248 15.3868 17.1849 15.6902 17.4882C15.9935 17.7916 16.3536 18.0322 16.75 18.1963C17.1463 18.3605 17.5711 18.445 18.0001 18.445C18.8664 18.445 19.6973 18.1008 20.3099 17.4882C20.9226 16.8756 21.2667 16.0447 21.2667 15.1783C21.2667 14.312 20.9226 13.4811 20.3099 12.8685C19.6973 12.2558 18.8664 11.9117 18.0001 11.9117Z" fill="white"/>
</svg>
