<svg width="226" height="244" viewBox="0 0 226 244" fill="none" xmlns="http://www.w3.org/2000/svg">
<path d="M22.4262 134.038L118.574 85.75M22.4262 176.962L118.574 225.25M-20.7115 203.788C-14.3702 203.788 -8.09097 202.539 -2.23235 200.113C3.62628 197.686 8.94956 194.129 13.4336 189.645C17.9176 185.161 21.4745 179.838 23.9012 173.979C26.3279 168.121 27.5769 161.841 27.5769 155.5C27.5769 149.159 26.3279 142.879 23.9012 137.021C21.4745 131.162 17.9176 125.839 13.4336 121.355C8.94956 116.871 3.62628 113.314 -2.23235 110.887C-8.09097 108.461 -14.3702 107.212 -20.7115 107.212C-33.5184 107.212 -45.8008 112.299 -54.8566 121.355C-63.9125 130.411 -69 142.693 -69 155.5C-69 168.307 -63.9125 180.589 -54.8566 189.645C-45.8008 198.701 -33.5184 203.788 -20.7115 203.788ZM161.712 295C174.518 295 186.801 289.912 195.857 280.857C204.912 271.801 210 259.518 210 246.712C210 233.905 204.912 221.622 195.857 212.566C186.801 203.511 174.518 198.423 161.712 198.423C148.905 198.423 136.622 203.511 127.566 212.566C118.511 221.622 113.423 233.905 113.423 246.712C113.423 259.518 118.511 271.801 127.566 280.857C136.622 289.912 148.905 295 161.712 295ZM161.712 112.577C174.518 112.577 186.801 107.489 195.857 98.4336C204.912 89.3777 210 77.0954 210 64.2885C210 51.4816 204.912 39.1992 195.857 30.1434C186.801 21.0875 174.518 16 161.712 16C148.905 16 136.622 21.0875 127.566 30.1434C118.511 39.1992 113.423 51.4816 113.423 64.2885C113.423 77.0954 118.511 89.3777 127.566 98.4336C136.622 107.489 148.905 112.577 161.712 112.577Z" stroke="white" stroke-opacity="0.023" stroke-width="32" stroke-linecap="round" stroke-linejoin="round"/>
</svg>
